# xmcd
#
# Track frame offsets: 
#        150
#        17994
#        35798
#        52919
#        66947
#        81616
#        100583
#        112637
#        131273
#        148031
#        163785
#        182115
#        201352
#        213195
#        237263
#        252773
#        268951
#        281084
#        294982
#        311134
#        323313
#        335061
#
# Disc length: 4767 seconds
#
# Revision: 0
# Processed by: cddbd v1.5.2PL0 Copyright (c) Steve Scherf et al.
# Submitted via: ExactAudioCopy v0.95a5
#
DISCID=4b129d16
DTITLE=Various Artist - [t's Country Blues  part2  CD1
DYEAR=2007
DGENRE=Blues
TTITLE0=Till The Sun Goes Down - T. and MASSON
TTITLE1=Brother To The Blues - TAB BENOIT
TTITLE2=When This War Is Over - J.J.CALE and ERIC CLAPTON
TTITLE3=Atta Way To Go - SOLOMON BURKE
TTITLE4=Big Weekend - TOM PETTY
TTITLE5=Buckets of Rain - MARIA MULDAUR
TTITLE6=I'm Moving On - BIG HOUSE
TTITLE7=Wild Wolf Calling Me - TONY JOE WHITE
TTITLE8=Blue Highway - DELTA MOON
TTITLE9=It's Alright - GEORGE TERRY
TTITLE10=Stagger Lee - TAJ MAHAL
TTITLE11=Life Is Beautiful - KEB' MO'
TTITLE12=To Washington - JOHN MELLENCAMP
TTITLE13=You Don't Know You're Born - MARK KNOPFLER
TTITLE14=Comin' On Strong - TAB BENOIT
TTITLE15=I'll Be Your Baby Tonight - JOHN HAMMOND
TTITLE16=Lay The Hooch - MICHAEL POWERS
TTITLE17=Promises - ZADIG and MARCELLA
TTITLE18=Your Rights - AL BASILE
TTITLE19=Washing Horses in Eden - DAVID KNOPFLER
TTITLE20=One Of These Mornings - CHARLIE MUSSELWHITE
TTITLE21=The Road Is My Religion - GWYN ASHTON
EXTD=
EXTT0=
EXTT1=
EXTT2=
EXTT3=
EXTT4=
EXTT5=
EXTT6=
EXTT7=
EXTT8=
EXTT9=
EXTT10=
EXTT11=
EXTT12=
EXTT13=
EXTT14=
EXTT15=
EXTT16=
EXTT17=
EXTT18=
EXTT19=
EXTT20=
EXTT21=
PLAYORDER=
